<?xml version="1.0" standalone="no"?>
<!DOCTYPE svg PUBLIC "-//W3C//DTD SVG 20010904//EN"
 "http://www.w3.org/TR/2001/REC-SVG-20010904/DTD/svg10.dtd">
<svg version="1.0" xmlns="http://www.w3.org/2000/svg"
 width="228.000000pt" height="153.000000pt" viewBox="0 0 228.000000 153.000000"
 preserveAspectRatio="xMidYMid meet">

<g transform="translate(0.000000,153.000000) scale(0.100000,-0.100000)"
fill="#ffffff" stroke="none">
<path d="M593 1175 c-80 -22 -132 -52 -188 -110 -61 -64 -93 -125 -105 -202
-13 -79 -13 -373 0 -373 6 0 28 13 50 29 l40 29 66 -44 c77 -52 146 -74 229
-74 116 0 223 48 303 134 54 58 70 91 84 174 13 80 1 178 -31 241 -25 49 -116
133 -177 164 -91 46 -180 56 -271 32z m184 -206 c66 -32 96 -78 101 -153 4
-75 -15 -115 -77 -160 -39 -28 -50 -31 -115 -31 -60 0 -78 4 -108 24 -78 54
-106 142 -70 223 45 102 167 146 269 97z"/>
<path d="M1123 1173 c3 -10 8 -36 12 -58 9 -53 49 -132 87 -172 l31 -32 -47
-73 c-26 -40 -53 -95 -61 -123 -15 -53 -25 -295 -12 -295 4 0 47 0 96 0 l89 0
7 124 c8 144 20 177 82 220 73 51 176 46 244 -11 51 -43 62 -77 68 -208 l6
-120 94 -5 93 -5 -4 155 c-4 172 -13 206 -82 287 l-35 40 44 64 c48 71 75 142
75 195 l0 34 -94 -1 -94 -1 -11 -43 c-14 -56 -50 -97 -106 -124 -110 -52 -233
0 -273 114 l-18 50 -98 3 c-90 3 -97 1 -93 -15z"/>
</g>
</svg>
