<?xml version="1.0" standalone="no"?>
<!DOCTYPE svg PUBLIC "-//W3C//DTD SVG 20010904//EN"
 "http://www.w3.org/TR/2001/REC-SVG-20010904/DTD/svg10.dtd">
<svg version="1.0" xmlns="http://www.w3.org/2000/svg"
 width="350.000000pt" height="64.000000pt" viewBox="0 0 350.000000 64.000000"
 preserveAspectRatio="xMidYMid meet">

<g transform="translate(0.000000,64.000000) scale(0.100000,-0.100000)"
fill="#FFFFFF" stroke="none">
<path d="M267 596 c-54 -15 -100 -45 -145 -97 -57 -65 -65 -99 -70 -266 -2
-84 -1 -153 3 -153 5 0 23 11 42 25 l33 26 37 -30 c116 -93 288 -82 396 23 60
60 81 109 81 196 1 96 -31 161 -105 220 -81 64 -171 83 -272 56z m161 -156
c118 -72 81 -239 -56 -257 -83 -11 -154 38 -167 117 -19 115 120 203 223 140z"/>
<path d="M684 563 c6 -49 40 -116 74 -146 20 -19 20 -19 -18 -69 -47 -63 -60
-111 -60 -228 l0 -91 73 3 72 3 5 102 c4 91 8 104 30 128 54 57 121 70 188 36
57 -29 76 -70 80 -179 l4 -92 69 0 69 0 0 108 c0 117 -13 158 -64 220 l-28 32
26 35 c38 49 66 114 66 153 l0 33 -72 -3 -72 -3 -7 -35 c-9 -43 -55 -85 -107
-99 -83 -23 -182 41 -182 117 0 21 -4 22 -76 22 l-77 0 7 -47z"/>
<path d="M3209 455 c-2 -7 -6 -41 -8 -60 -1 -13 -9 -14 -35 -9 -65 12 -110
-64 -68 -116 10 -12 29 -22 42 -21 14 0 40 1 58 1 l32 1 0 105 c0 63 -4 104
-10 104 -5 0 -11 -2 -11 -5z m-31 -101 c38 -26 23 -84 -22 -84 -23 0 -56 27
-56 47 0 14 35 53 48 53 4 0 18 -7 30 -16z"/>
<path d="M3270 434 c0 -8 5 -12 10 -9 6 4 8 11 5 16 -9 14 -15 11 -15 -7z"/>
<path d="M2780 356 c0 -76 2 -87 22 -100 17 -12 25 -13 42 -3 20 11 20 12 -6
15 -19 2 -30 11 -34 27 -10 41 -1 70 24 73 26 4 20 22 -9 22 -14 0 -19 7 -19
25 0 14 -4 25 -10 25 -6 0 -10 -35 -10 -84z"/>
<path d="M1910 277 c0 -70 4 -106 10 -102 6 3 10 24 10 46 0 37 2 40 23 33 54
-18 97 9 97 61 0 46 -31 70 -91 70 l-49 0 0 -108z m98 77 c48 -33 11 -98 -45
-78 -38 13 -45 65 -11 82 31 14 30 14 56 -4z"/>
<path d="M2116 369 c-41 -32 -34 -89 15 -114 29 -16 70 -8 84 15 5 8 -4 9 -29
5 -23 -5 -42 -3 -51 5 -24 20 -6 32 44 28 41 -3 46 -1 49 19 4 28 -31 63 -62
63 -13 0 -35 -9 -50 -21z m62 -5 c39 -11 27 -34 -18 -34 -41 0 -49 7 -28 28
14 14 15 14 46 6z"/>
<path d="M2295 365 c-37 -37 -30 -85 17 -111 9 -5 37 -8 62 -6 l46 4 0 44 c0
53 -33 94 -75 94 -14 0 -37 -11 -50 -25z m77 -7 c24 -20 28 -44 12 -67 -20
-27 -59 -27 -78 1 -20 29 -20 34 4 58 23 23 40 25 62 8z"/>
<path d="M2440 382 c0 -5 11 -19 25 -32 32 -30 31 -37 -2 -68 -19 -18 -24 -27
-15 -30 8 -2 26 8 41 22 l27 26 24 -25 c13 -14 30 -25 39 -25 10 0 7 8 -12 28
-33 35 -33 39 0 74 38 39 20 48 -20 10 l-33 -32 -29 30 c-28 30 -45 38 -45 22z"/>
<path d="M2636 368 c-20 -29 -4 -58 32 -58 15 0 33 -4 41 -9 23 -15 2 -31 -40
-31 -28 0 -39 -4 -36 -12 5 -16 74 -13 93 3 34 28 4 69 -51 69 -41 0 -29 34
13 38 43 4 41 22 -2 22 -24 0 -39 -7 -50 -22z"/>
<path d="M2895 381 c-10 -18 5 -96 23 -113 18 -18 35 -21 95 -19 l38 1 -3 68
c-3 76 -20 90 -28 22 -7 -57 -15 -70 -45 -70 -35 0 -55 26 -55 70 0 38 -13 60
-25 41z"/>
<path d="M3266 374 c-3 -9 -6 -40 -6 -70 0 -41 4 -54 15 -54 12 0 15 14 15 64
0 63 -12 92 -24 60z"/>
<path d="M3349 377 c-24 -19 -41 -56 -34 -77 10 -31 52 -59 83 -54 61 10 83
86 36 123 -30 23 -61 26 -85 8z m71 -27 c25 -25 25 -42 0 -65 -16 -15 -26 -17
-48 -9 -36 13 -42 56 -10 78 29 20 34 20 58 -4z"/>
</g>
</svg>
