<?xml version="1.0" encoding="UTF-8"?>
<svg version="1.1" xmlns="http://www.w3.org/2000/svg" width="462" height="89">
<path d="M0 0 C152.46 0 304.92 0 462 0 C462 29.37 462 58.74 462 89 C309.54 89 157.08 89 0 89 C0 59.63 0 30.26 0 0 Z " fill="#FDFDFD" transform="translate(0,0)"/>
<path d="M0 0 C8.92486315 6.51273797 14.68335698 13.77319621 16.45703125 24.79296875 C17.20338374 35.74425624 16.30414828 45.21593683 9.1875 53.9140625 C1.77049021 61.96729435 -7.07652647 68.19159212 -18.27734375 69.09375 C-32.26139568 69.3013055 -40.52740865 66.60960526 -51.54296875 57.79296875 C-53.78157264 58.8678725 -55.64530049 59.87359375 -57.60546875 61.41796875 C-59.54296875 62.79296875 -59.54296875 62.79296875 -62.54296875 62.79296875 C-62.64264921 57.56434544 -62.71481622 52.33628831 -62.76269531 47.10693359 C-62.78267714 45.33209586 -62.8098723 43.55732281 -62.84472656 41.78271484 C-63.20581123 22.91073073 -63.20581123 22.91073073 -58.54296875 14.79296875 C-57.83914062 13.45685547 -57.83914062 13.45685547 -57.12109375 12.09375 C-43.76482523 -7.90136964 -20.39732004 -13.00931435 0 0 Z " fill="#030303" transform="translate(68.54296875,16.20703125)"/>
<path d="M0 0 C6.6 0 13.2 0 20 0 C20.99 2.97 21.98 5.94 23 9 C26.31619636 13.97429453 29.26569536 16.27970861 35 18 C41.72330745 18.99741374 47.22892941 17.52999087 53 14 C57.58961654 9.77272161 57.8363083 6.49107509 60 0 C66.27 0 72.54 0 79 0 C79 10.15966387 79 10.15966387 75.75 16.25 C75.14671875 17.41015625 74.5434375 18.5703125 73.921875 19.765625 C72.14779993 22.75126353 70.24529937 25.35730252 68 28 C69.87863576 32.11421231 72.56507838 35.43257878 75.34375 38.9765625 C79.74984621 47.01976643 79.26000426 56.19394867 79.125 65.125 C79.11597656 66.27226563 79.10695313 67.41953125 79.09765625 68.6015625 C79.07432649 71.40113371 79.0384651 74.20059583 79 77 C72.73 77 66.46 77 60 77 C59.625 68.0625 59.625 68.0625 59.52197266 65.30493164 C59.10810427 56.59965028 58.51577305 49.21960155 52 43 C47.35097557 39.59827481 42.65093394 39.37622055 37.046875 39.515625 C32.13715497 40.29614459 28.52708916 42.54779596 25 46 C22.3392568 49.77504325 21.56328681 52.58867514 21.26953125 57.17578125 C21.14868164 58.91118164 21.14868164 58.91118164 21.02539062 60.68164062 C20.95513672 61.87982422 20.88488281 63.07800781 20.8125 64.3125 C20.73064453 65.53001953 20.64878906 66.74753906 20.56445312 68.00195312 C20.36454723 71.00054156 20.18071123 74.0001936 20 77 C13.73 77 7.46 77 1 77 C0.8913327 72.70764183 0.81234761 68.41807833 0.75 64.125 C0.71648437 62.92101562 0.68296875 61.71703125 0.6484375 60.4765625 C0.52097012 48.74956326 3.49643035 41.35503457 10.70703125 32.2265625 C12.20926453 30.12198573 12.20926453 30.12198573 11.84375 27.8828125 C10.75453029 25.45223888 9.07062105 23.69069993 7.3359375 21.6953125 C2.45201171 15.49758211 0 7.83589538 0 0 Z " fill="#030303" transform="translate(89,9)"/>
<path d="M0 0 C5.34704216 2.34773418 9.32541259 6.02373075 11.70703125 11.38671875 C12.66200717 16.91823312 12.66326445 22.32772311 10.01953125 27.38671875 C6.25142754 32.2750695 2.77271134 35.01335722 -3.29296875 36.38671875 C-9.33864169 36.94887757 -14.10932494 36.88266457 -19.29296875 33.38671875 C-23.91305022 29.51874356 -26.63642109 25.44610491 -27.61328125 19.40625 C-27.90836603 14.32095564 -26.6123637 10.31130725 -23.29296875 6.38671875 C-16.07801461 0.05581038 -9.682649 -2.58973747 0 0 Z " fill="#FBFBFB" transform="translate(53.29296875,29.61328125)"/>
<path d="M0 0 C0.99 0 1.98 0 3 0 C3 8.91 3 17.82 3 27 C-9.976719 27.60638874 -9.976719 27.60638874 -14.375 25 C-16.4577287 21.1549624 -17.18957818 18.26696519 -16 14 C-12.65019817 9.96305933 -10.30145278 8.79264614 -5.125 8.1875 C-3.75113867 8.10361738 -2.37600868 8.03363577 -1 8 C-0.67 5.36 -0.34 2.72 0 0 Z " fill="#080808" transform="translate(426,30)"/>
<path d="M0 0 C12 0 12 0 16 2 C18.4674097 5.70111454 18.77653117 8.70820405 18 13 C16.125 16 16.125 16 13 18 C9.62281543 18.39701254 6.38234984 18.29554513 3 18 C2.67 20.97 2.34 23.94 2 27 C1.34 27 0.68 27 0 27 C0 18.09 0 9.18 0 0 Z " fill="#0B0B0B" transform="translate(254,39)"/>
<path d="M0 0 C2.65473493 2.13533027 3.70576098 2.99131448 5 6 C5.40623434 10.03663241 5.2942952 13.95834592 5 18 C-7.73140172 18.7752545 -7.73140172 18.7752545 -12.375 15.9375 C-14.42783478 12.22660635 -14.6724224 10.1839616 -14 6 C-10.37590509 0.17556175 -6.74425396 -2.20220537 0 0 Z " fill="#0A0A0A" transform="translate(316,39)"/>
<path d="M0 0 C2.79066464 1.3558131 3.86600558 2.55371372 6 5 C6.63405666 8.94524145 6.36844982 11.17098791 4.75 14.8125 C2.83877028 17.20153715 1.94084445 18.18309876 -1 19 C-5.66269257 19 -7.46312155 18.49118667 -10.9375 15.3125 C-13.20661553 11.66816294 -13.80171842 10.18675177 -13 6 C-9.27164865 0.40747298 -6.71012047 -0.67101205 0 0 Z " fill="#101010" transform="translate(454,39)"/>
<path d="M0 0 C2.875 2.25 2.875 2.25 5 5 C4.67 6.65 4.34 8.3 4 10 C-1.94 10.495 -1.94 10.495 -8 11 C-7.67 11.99 -7.34 12.98 -7 14 C-3.7 14 -0.4 14 3 14 C2 17 2 17 0 18 C-6.97142857 18.68571429 -6.97142857 18.68571429 -11 16 C-13.21069627 12.68395559 -13.79582382 10.84849363 -13.56640625 6.93359375 C-12.51061391 3.32933715 -10.06278308 2.02143683 -7 0 C-4.19664415 -1.40167793 -2.9650644 -0.96536981 0 0 Z " fill="#0F0F0F" transform="translate(291,39)"/>
<path d="M0 0 C0.99 0.33 1.98 0.66 3 1 C3.9140625 3.6875 3.9140625 3.6875 4.625 7 C5.17947093 10.81075302 5.17947093 10.81075302 7 14 C9.33297433 14.04092937 11.66705225 14.04241723 14 14 C14.99 9.71 15.98 5.42 17 1 C17.99 1 18.98 1 20 1 C20.8320582 6.72040011 21.12036664 12.22240116 21 18 C18.60225255 18.13572155 16.21224755 18.23436868 13.8125 18.3125 C12.80219727 18.3753418 12.80219727 18.3753418 11.77148438 18.43945312 C7.78163682 18.53676648 6.2010498 18.16454409 3.07421875 15.60546875 C0.09265083 11.86026008 -0.11744539 10.10030345 -0.0625 5.375 C-0.05347656 4.37210938 -0.04445313 3.36921875 -0.03515625 2.3359375 C-0.02355469 1.56507812 -0.01195312 0.79421875 0 0 Z " fill="#161616" transform="translate(385,39)"/>
<path d="M0 0 C2.30240777 1.06897504 4.04012631 2.03624312 5.9375 3.75 C6.618125 4.1625 7.29875 4.575 8 5 C11.58168492 4.10457877 14.16092318 2.31332186 17 0 C17.66 0.33 18.32 0.66 19 1 C18.62746094 1.45890625 18.25492187 1.9178125 17.87109375 2.390625 C17.39800781 3.00421875 16.92492187 3.6178125 16.4375 4.25 C15.96183594 4.85328125 15.48617188 5.4565625 14.99609375 6.078125 C13.79507063 7.95491381 13.79507063 7.95491381 14.25 10.1015625 C15.15368127 12.38900572 16.50953551 14.05591588 18 16 C18 16.66 18 17.32 18 18 C15.04590299 16.62845496 12.55991624 15.01136276 10 13 C7.74837528 14.04539719 5.85410839 15.11156417 3.875 16.625 C2 18 2 18 0 18 C1.1858237 14.62496331 2.27573689 12.35277269 5 10 C3.95460281 7.74837528 2.88843583 5.85410839 1.375 3.875 C0 2 0 2 0 0 Z " fill="#161616" transform="translate(325,39)"/>
<path d="M0 0 C0 0.99 0 1.98 0 3 C-2.64 3.66 -5.28 4.32 -8 5 C-7.16745087 7.23339896 -7.16745087 7.23339896 -4.71484375 7.8515625 C-3.79832031 8.10679688 -2.88179688 8.36203125 -1.9375 8.625 C-1.01839844 8.88539062 -0.09929687 9.14578125 0.84765625 9.4140625 C1.55792969 9.60742188 2.26820313 9.80078125 3 10 C3.625 12.8125 3.625 12.8125 4 16 C2 19 2 19 -1 20 C-2.39439664 20.06665376 -3.79169875 20.08538199 -5.1875 20.0625 C-7.0746875 20.0315625 -7.0746875 20.0315625 -9 20 C-9 18.68 -9 17.36 -9 16 C-4.545 15.505 -4.545 15.505 0 15 C-0.33 14.01 -0.66 13.02 -1 12 C-2.093125 11.896875 -3.18625 11.79375 -4.3125 11.6875 C-8 11 -8 11 -10 9.75 C-11 8 -11 8 -10.9375 5.5 C-8.88819548 0.03518794 -5.44257159 -0.37108443 0 0 Z " fill="#1C1C1C" transform="translate(360,38)"/>
<path d="M0 0 C2.60964149 1.03012164 3.83498357 1.58694861 5.375 3.9375 C5.76865568 7.08674548 5.90354531 9.05659116 4.25 11.8125 C1.45053259 13.49218045 -0.42304064 13.39492277 -3.625 12.9375 C-6.41006308 10.95863939 -7.43584752 9.77817767 -8.1875 6.4375 C-7.625 3.9375 -7.625 3.9375 -5.4375 1.5625 C-2.625 -0.0625 -2.625 -0.0625 0 0 Z " fill="#F0F0F0" transform="translate(263.625,41.0625)"/>
<path d="M0 0 C3.94741379 1.55818966 3.94741379 1.55818966 5.375 3.9375 C5.25 7.5 5.25 7.5 4.375 10.9375 C1.12673326 13.10301116 0.14405843 13.48906953 -3.625 12.9375 C-6.35078551 10.94841327 -7.44331444 9.74499138 -8.1875 6.4375 C-7.625 3.9375 -7.625 3.9375 -5.4375 1.5625 C-2.625 -0.0625 -2.625 -0.0625 0 0 Z " fill="#F3F3F3" transform="translate(312.625,41.0625)"/>
<path d="M0 0 C3.89173729 1.49682203 3.89173729 1.49682203 5.4375 3.9375 C5.75 7.5 5.75 7.5 5.4375 10.9375 C3.4375 12.9375 3.4375 12.9375 0.625 13.3125 C-3.22555455 12.85949358 -4.78051758 11.5558364 -7.5625 8.9375 C-7.216656 5.82490396 -6.68870033 4.10877187 -4.8125 1.5625 C-2.5625 -0.0625 -2.5625 -0.0625 0 0 Z " fill="#F2F2F2" transform="translate(419.5625,41.0625)"/>
<path d="M0 0 C2.69280736 1.34640368 4.21522747 2.55420061 6 5 C5.9375 8.125 5.9375 8.125 5 11 C1.76746204 13.15502531 0.74849077 13.46856135 -3 13 C-4.8125 11.875 -4.8125 11.875 -6 10 C-6.55516073 6.27249227 -6.4672176 4.65076737 -4.25 1.5625 C-2 0 -2 0 0 0 Z " fill="#F5F5F5" transform="translate(451,41)"/>
<path d="M0 0 C0.66 0 1.32 0 2 0 C2.061875 0.78375 2.12375 1.5675 2.1875 2.375 C2.455625 3.24125 2.72375 4.1075 3 5 C5.47636012 6.37466625 5.47636012 6.37466625 8 7 C8 7.66 8 8.32 8 9 C6.02 9.99 6.02 9.99 4 11 C4 14.63 4 18.26 4 22 C5.98 22.33 7.96 22.66 10 23 C8 25 8 25 5.5625 25.3125 C3 25 3 25 1.3581543 23.79956055 C-0.4610249 21.38913993 -0.34495648 19.89249057 -0.29296875 16.89453125 C-0.28330078 15.91162109 -0.27363281 14.92871094 -0.26367188 13.91601562 C-0.23853516 12.89185547 -0.21339844 11.86769531 -0.1875 10.8125 C-0.17396484 9.77673828 -0.16042969 8.74097656 -0.14648438 7.67382812 C-0.11111389 5.11536301 -0.06175544 2.5579422 0 0 Z " fill="#151515" transform="translate(370,32)"/>
<path d="M0 0 C2.78354283 1.37045325 3.86434747 2.55181296 6 5 C6.375 8.8125 6.375 8.8125 6 12 C4.68 12.33 3.36 12.66 2 13 C2.0825 12.0925 2.165 11.185 2.25 10.25 C2.26390304 6.96521177 2.26390304 6.96521177 0.375 4.5625 C-1.98143482 2.6650716 -1.98143482 2.6650716 -5.25 3.25 C-6.1575 3.4975 -7.065 3.745 -8 4 C-8.33 5.98 -8.66 7.96 -9 10 C-9.66 9.01 -10.32 8.02 -11 7 C-11.99 7.495 -11.99 7.495 -13 8 C-10.73957682 1.03036185 -7.35029707 -1.01383408 0 0 Z " fill="#151515" transform="translate(454,39)"/>
<path d="M0 0 C2.375 1.9375 2.375 1.9375 4 4 C4 4.66 4 5.32 4 6 C1.13275314 5.42655063 0.1385485 5.1385485 -2 3 C-6.50317123 3.35263785 -6.50317123 3.35263785 -10 6 C-10.69748583 7.31747324 -11.36959957 8.64914193 -12 10 C-12.66 8.68 -13.32 7.36 -14 6 C-9.79372504 0.29148398 -7.1710623 -2.09155984 0 0 Z " fill="#1A1A1A" transform="translate(316,39)"/>
<path d="M0 0 C0.66 0.33 1.32 0.66 2 1 C2 6.28 2 11.56 2 17 C1.01 17 0.02 17 -1 17 C-1.02684679 14.35409986 -1.04676357 11.70846904 -1.0625 9.0625 C-1.07087891 8.30775391 -1.07925781 7.55300781 -1.08789062 6.77539062 C-1.09652441 4.85005687 -1.05224333 2.92464419 -1 1 C-0.67 0.67 -0.34 0.34 0 0 Z " fill="#040404" transform="translate(435,39)"/>
<path d="M0 0 C0.33 1.32 0.66 2.64 1 4 C-2.90028225 6.60018816 -6.47434569 6.15085514 -11 6 C-11 4.68 -11 3.36 -11 2 C-10.06027344 1.90912109 -10.06027344 1.90912109 -9.1015625 1.81640625 C-7.87566406 1.69072266 -7.87566406 1.69072266 -6.625 1.5625 C-5.81289063 1.48128906 -5.00078125 1.40007813 -4.1640625 1.31640625 C-1.95727195 1.10909886 -1.95727195 1.10909886 0 0 Z " fill="#131313" transform="translate(362,52)"/>
<path d="M0 0 C0 1.32 0 2.64 0 4 C-2.97 4 -5.94 4 -9 4 C-8.67 2.68 -8.34 1.36 -8 0 C-5.13822943 -1.43088528 -3.06624227 -0.59991697 0 0 Z " fill="#F2F2F2" transform="translate(291,42)"/>
<path d="M0 0 C0.66 0.33 1.32 0.66 2 1 C1.67 1.99 1.34 2.98 1 4 C0.34 4 -0.32 4 -1 4 C-1.33 5.98 -1.66 7.96 -2 10 C-2.66 9.01 -3.32 8.02 -4 7 C-4.99 7.495 -4.99 7.495 -6 8 C-4.73058503 4.08597051 -3.48832306 2.20927127 0 0 Z " fill="#212121" transform="translate(447,39)"/>
<path d="M0 0 C0 0.66 0 1.32 0 2 C-4.455 2.495 -4.455 2.495 -9 3 C-9 2.34 -9 1.68 -9 1 C-5.64919071 -1.10976881 -3.77897651 -1.0497157 0 0 Z " fill="#1D1D1D" transform="translate(291,39)"/>
<path d="M0 0 C0.5775 0.226875 1.155 0.45375 1.75 0.6875 C0.76 0.6875 -0.23 0.6875 -1.25 0.6875 C-1.476875 1.30625 -1.70375 1.925 -1.9375 2.5625 C-3.62929835 5.30160209 -5.24244161 5.73774472 -8.25 6.6875 C-6.65594781 2.8352072 -4.57967475 -0.63606594 0 0 Z " fill="#232323" transform="translate(418.25,39.3125)"/>
</svg>
